HIERARCHY
ROOT Hips
{
	OFFSET 0.000000 0.000000 0.000000
	CHANNELS 6 Xposition Yposition Zposition Xrotation Yrotation Zrotation
	JOINT LeftUpLeg_virtual
	{
		OFFSET 0.000000 0.000000 0.000000
		CHANNELS 3 Xrotation Yrotation Zrotation
		JOINT LeftUpLeg
		{
			OFFSET 15.427100 -6.655098 0.678600
			CHANNELS 3 Xrotation Yrotation Zrotation
			JOINT LeftLeg
			{
				OFFSET 4.081073 -39.591068 13.024000
				CHANNELS 3 Xrotation Yrotation Zrotation
				JOINT LeftFoot
				{
					OFFSET -4.081074 -37.707932 -15.979700
					CHANNELS 3 Xrotation Yrotation Zrotation
					JOINT LeftToeBase
					{
						OFFSET 5.346399 -15.068900 20.645000
						CHANNELS 3 Xrotation Yrotation Zrotation
						JOINT LeftToe_End
						{
							OFFSET 2.754700 0.931300 11.300900
							CHANNELS 3 Xrotation Yrotation Zrotation
							End Site
							{
								OFFSET 0 0 0
							}
						}
					}
				}
			}
		}
	}
	JOINT RightUpLeg_virtual
	{
		OFFSET 0.000000 0.000000 0.000000
		CHANNELS 3 Xrotation Yrotation Zrotation
		JOINT RightUpLeg
		{
			OFFSET -15.569500 -6.655098 0.678600
			CHANNELS 3 Xrotation Yrotation Zrotation
			JOINT RightLeg
			{
				OFFSET -4.081825 -39.591045 13.023800
				CHANNELS 3 Xrotation Yrotation Zrotation
				JOINT RightFoot
				{
					OFFSET 4.081824 -37.707954 -15.979600
					CHANNELS 3 Xrotation Yrotation Zrotation
					JOINT RightToeBase
					{
						OFFSET -5.346400 -15.068900 20.645000
						CHANNELS 3 Xrotation Yrotation Zrotation
						JOINT RightToe_End
						{
							OFFSET -2.754700 0.931300 11.300900
							CHANNELS 3 Xrotation Yrotation Zrotation
							End Site
							{
								OFFSET 0 0 0
							}
						}
					}
				}
			}
		}
	}
	JOINT Spine_virtual
	{
		OFFSET 0.000000 0.000000 0.000000
		CHANNELS 3 Xrotation Yrotation Zrotation
		JOINT Spine
		{
			OFFSET -0.279200 12.230698 -2.892100
			CHANNELS 3 Xrotation Yrotation Zrotation
			JOINT Spine1
			{
				OFFSET -0.232667 10.192268 -1.242267
				CHANNELS 3 Xrotation Yrotation Zrotation
				JOINT Spine1_split
				{
					OFFSET -0.232667 10.192268 -1.242267
					CHANNELS 3 Xrotation Yrotation Zrotation
					JOINT Spine2
					{
						OFFSET -0.232667 10.192268 -1.242267
						CHANNELS 3 Xrotation Yrotation Zrotation
						JOINT Neck_virtual
						{
							OFFSET 0.000000 0.000000 0.000000
							CHANNELS 3 Xrotation Yrotation Zrotation
							JOINT Neck
							{
								OFFSET -0.418800 17.814194 8.416900
								CHANNELS 3 Xrotation Yrotation Zrotation
								JOINT Head
								{
									OFFSET 0.000000 7.031097 3.806800
									CHANNELS 3 Xrotation Yrotation Zrotation
									JOINT HeadTop_End
									{
										OFFSET 0.000000 24.646606 12.978600
										CHANNELS 3 Xrotation Yrotation Zrotation
										End Site
										{
											OFFSET 0 0 0
										}
									}
								}
							}
						}
						JOINT LeftShoulder_virtual
						{
							OFFSET 0.000000 0.000000 0.000000
							CHANNELS 3 Xrotation Yrotation Zrotation
							JOINT LeftShoulder
							{
								OFFSET 8.476499 7.247704 -3.868750
								CHANNELS 3 Xrotation Yrotation Zrotation
								JOINT LeftShoulder_split
								{
									OFFSET 8.476499 7.247704 -3.868750
									CHANNELS 3 Xrotation Yrotation Zrotation
									JOINT LeftArm
									{
										OFFSET 9.308998 -2.777710 0.208600
										CHANNELS 3 Xrotation Yrotation Zrotation
										JOINT LeftForeArm
										{
											OFFSET 29.972298 0.000000 0.000000
											CHANNELS 3 Xrotation Yrotation Zrotation
											JOINT LeftHand
											{
												OFFSET 26.026505 0.000000 0.000000
												CHANNELS 3 Xrotation Yrotation Zrotation
												End Site
												{
													OFFSET 0 0 0
												}
											}
										}
									}
								}
							}
						}
						JOINT RightShoulder_virtual
						{
							OFFSET 0.000000 0.000000 0.000000
							CHANNELS 3 Xrotation Yrotation Zrotation
							JOINT RightShoulder
							{
								OFFSET -7.570500 7.247704 -3.868750
								CHANNELS 3 Xrotation Yrotation Zrotation
								JOINT RightShoulder_split
								{
									OFFSET -7.570500 7.247704 -3.868750
									CHANNELS 3 Xrotation Yrotation Zrotation
									JOINT RightArm
									{
										OFFSET -9.308998 -2.777710 0.208500
										CHANNELS 3 Xrotation Yrotation Zrotation
										JOINT RightForeArm
										{
											OFFSET -29.972300 0.000000 0.000000
											CHANNELS 3 Xrotation Yrotation Zrotation
											JOINT RightHand
											{
												OFFSET -26.026505 0.000000 0.000000
												CHANNELS 3 Xrotation Yrotation Zrotation
												End Site
												{
													OFFSET 0 0 0
												}
											}
										}
									}
								}
							}
						}
					}
				}
			}
		}
	}
}
MOTION
Frames: 5
Frame Time: 0.03333333
-0.339239 95.494980 0.261490 0.000000 0.000000 0.000000 -1.960795 6.456518 -2.229307 -3.096910 12.876992 13.501165 8.845329 -4.388519 -0.848629 -6.055274 0.176610 -6.682006 1.703525 0.194550 -2.518240 0.000000 0.000000 0.000000 -2.112635 7.534502 -2.153084 -3.686807 -4.240467 0.883377 8.064008 4.664491 -0.575471 0.764569 0.186788 0.550658 -1.807928 0.340529 0.881105 0.000000 0.000000 0.000000 -1.912604 9.844638 -2.410154 9.647929 -0.309872 1.391010 3.167969 0.218136 -0.547607 0.301889 -2.312078 1.086679 0.000000 0.000000 0.000000 -4.304339 -0.024514 0.074178 -0.134996 0.299936 0.287678 6.270801 -3.703907 -1.332314 0.000000 0.000000 0.000000 -4.631567 -0.483842 0.161056 0.569449 -4.119189 -8.172035 -0.562538 -2.140820 1.107697 4.898850 1.296291 -72.318289 3.499783 -11.928907 1.378276 0.000000 0.000000 0.000000 -5.412542 -0.768971 0.184750 0.727471 8.067722 5.736540 -3.031026 -0.928514 -0.357958 3.609960 12.995993 77.063672 16.855964 19.136300 -4.852414 0.000000 0.000000 0.000000 
-0.041788 95.568939 0.029079 0.000000 0.000000 0.000000 -1.813322 6.605116 -2.220683 -2.855231 12.714136 13.323598 8.745738 -4.260903 -0.879893 -6.313984 0.284255 -6.739419 1.716570 0.166527 -2.461681 0.000000 0.000000 0.000000 -1.877822 7.662256 -2.210072 -3.883208 -4.437062 0.592999 7.911889 4.787437 -0.623113 0.601059 0.445060 0.368457 -1.363829 0.370377 0.738305 0.000000 0.000000 0.000000 -1.713442 9.448293 -2.451636 9.487547 -0.276483 1.419850 3.121394 0.246176 -0.553276 0.237851 -2.345071 0.931711 0.000000 0.000000 0.000000 -4.205543 0.004545 0.071656 -0.079029 0.371441 0.269704 6.300391 -3.891110 -1.130150 0.000000 0.000000 0.000000 -4.645283 -0.462599 0.125827 0.614738 -4.046754 -8.042229 -0.636436 -2.016871 1.092778 4.724886 1.160763 -72.312968 3.454224 -12.057834 1.362853 0.000000 0.000000 0.000000 -5.448014 -0.741271 0.214171 0.703318 7.788367 5.581455 -3.062602 -0.870512 -0.353546 3.486654 13.363374 76.938147 16.925692 19.487539 -5.011824 0.000000 0.000000 0.000000 
0.403370 95.504883 0.008751 0.000000 0.000000 0.000000 -1.796655 6.897611 -2.240833 -2.618971 12.418687 13.100988 8.820665 -4.134319 -1.008110 -6.774717 0.457313 -6.799934 1.707856 0.144411 -2.354734 0.000000 0.000000 0.000000 -1.646288 7.793672 -2.332912 -3.671551 -4.576601 0.211838 7.526892 4.938255 -0.759754 -0.022555 0.955859 0.226619 -1.189084 0.411115 0.446438 0.000000 0.000000 0.000000 -1.552560 9.076369 -2.446571 9.295858 -0.175104 1.464190 3.117841 0.307655 -0.569012 0.245629 -2.259630 0.833204 0.000000 0.000000 0.000000 -4.074005 0.063623 0.064794 -0.151182 0.492886 0.158594 6.193129 -4.079718 -0.825876 0.000000 0.000000 0.000000 -4.586875 -0.413084 0.087244 0.673863 -3.953179 -7.812183 -0.753761 -2.019210 1.017393 4.516752 0.890697 -72.224715 3.493410 -12.151663 1.301980 0.000000 0.000000 0.000000 -5.384481 -0.679050 0.222624 0.714035 7.558508 5.356398 -3.007164 -0.979594 -0.348860 3.437070 13.814523 76.740413 17.062940 20.176625 -5.587121 0.000000 0.000000 0.000000 
0.951493 95.282326 0.282730 0.000000 0.000000 0.000000 -1.883513 7.175348 -2.276148 -2.372358 12.068908 12.821301 8.980055 -3.941319 -1.208697 -7.368253 0.692641 -6.764908 1.661100 0.127295 -2.215194 0.000000 0.000000 0.000000 -1.472412 7.839416 -2.444134 -3.132416 -4.765443 -0.294159 7.229433 5.043737 -0.827199 -0.919747 1.573984 0.030034 -1.213162 0.460374 0.103754 0.000000 0.000000 0.000000 -1.516843 8.772249 -2.395148 9.099351 -0.048381 1.520675 3.160217 0.383288 -0.573795 0.289458 -2.101295 0.817309 0.000000 0.000000 0.000000 -3.944859 0.127060 0.075973 -0.314970 0.640713 -0.032147 5.967586 -4.271365 -0.452201 0.000000 0.000000 0.000000 -4.463126 -0.353066 0.063521 0.742321 -3.842599 -7.549072 -0.910485 -2.058734 0.925671 4.338395 0.504070 -72.156359 3.617753 -12.154595 1.201875 0.000000 0.000000 0.000000 -5.232633 -0.601480 0.225789 0.760588 7.397642 5.101860 -2.914739 -1.165151 -0.398454 3.450401 14.147343 76.541695 17.205233 20.997834 -6.477809 0.000000 0.000000 0.000000 
1.553507 94.984985 0.805340 0.000000 0.000000 0.000000 -2.032064 7.261034 -2.289994 -2.018933 11.627031 12.465175 9.114162 -3.603945 -1.435809 -8.105419 1.010986 -6.507499 1.532609 0.125692 -2.029862 0.000000 0.000000 0.000000 -1.431328 7.662677 -2.494780 -2.363435 -5.047502 -0.947521 6.963364 5.140643 -0.703207 -1.893476 2.186702 -0.032966 -1.402667 0.484365 -0.207130 0.000000 0.000000 0.000000 -1.590521 8.567847 -2.332737 8.913755 0.081914 1.580862 3.231814 0.449859 -0.545286 0.351694 -1.914579 0.823209 0.000000 0.000000 0.000000 -3.838804 0.174510 0.122119 -0.515865 0.806028 -0.244337 5.673940 -4.452243 -0.061983 0.000000 0.000000 0.000000 -4.303101 -0.297499 0.075876 0.807194 -3.728283 -7.320601 -1.061482 -2.152746 0.841522 4.199627 0.042881 -72.171665 3.818762 -12.083329 1.082199 0.000000 0.000000 0.000000 -5.029874 -0.532312 0.243495 0.842096 7.332005 4.869333 -2.744154 -1.264400 -0.450815 3.420112 14.267840 76.427939 17.250196 21.764898 -7.537576 0.000000 0.000000 0.000000 
